<?xml version="1.0" standalone="no"?>
<!DOCTYPE svg PUBLIC "-//W3C//DTD SVG 20010904//EN"
 "http://www.w3.org/TR/2001/REC-SVG-20010904/DTD/svg10.dtd">
<svg version="1.0" xmlns="http://www.w3.org/2000/svg"
 width="16.000000pt" height="16.000000pt" viewBox="0 0 16.000000 16.000000"
 preserveAspectRatio="xMidYMid meet">
<metadata>
Created by potrace 1.11, written by Peter Selinger 2001-2013
</metadata>
<g transform="translate(0.000000,16.000000) scale(0.003077,-0.003077)"
fill="#000000" stroke="none">
<path d="M3315 2920 c0 -55 -2 -100 -5 -100 -4 0 -16 13 -28 29 -33 46 -114
79 -190 79 -76 -1 -131 -20 -176 -62 -85 -81 -119 -174 -118 -327 1 -107 37
-207 99 -275 94 -104 278 -108 377 -9 l41 42 0 -46 0 -46 58 -3 57 -3 0 136
c1 74 1 223 1 330 0 107 0 231 -1 275 l0 80 -58 0 -57 0 0 -100z m-115 -110
c73 -37 111 -120 112 -245 2 -181 -63 -275 -193 -281 -122 -6 -190 84 -197
256 -4 109 17 186 66 235 56 57 142 71 212 35z"/>
<path d="M400 2910 c-36 -12 -66 -31 -86 -54 -17 -20 -33 -36 -36 -36 -2 0 -3
20 -3 45 1 26 -3 45 -9 46 -48 5 -99 3 -103 -4 -4 -7 -7 -721 -4 -834 1 -21 6
-23 59 -23 l59 0 -1 125 -2 125 39 -40 c47 -50 96 -71 170 -75 72 -4 121 9
172 46 87 63 137 181 137 328 1 267 -176 426 -392 351z m153 -96 c73 -38 108
-108 115 -230 6 -109 -14 -187 -60 -239 -38 -44 -57 -55 -113 -62 -79 -9 -144
27 -184 102 -53 103 -44 287 20 377 44 62 153 87 222 52z"/>
<path d="M2175 2916 c-115 -27 -126 -38 -117 -117 3 -26 4 -26 31 -13 93 46
245 55 316 18 44 -23 85 -83 85 -126 l0 -28 -112 -1 c-161 -1 -200 -8 -265
-45 -77 -44 -109 -109 -105 -214 2 -56 18 -97 51 -133 49 -54 87 -70 170 -73
103 -3 161 16 217 71 l44 44 0 -49 c0 -54 4 -57 75 -52 l42 4 -2 236 c-2 261
-6 296 -42 362 -46 85 -116 120 -248 126 -46 2 -106 -2 -140 -10z m315 -390
c0 -102 -59 -202 -135 -232 -52 -19 -141 -15 -176 9 -50 36 -70 111 -45 172
25 59 90 80 254 82 l102 2 0 -33z"/>
<path d="M920 2915 c0 0 18 -70 40 -155 23 -85 43 -162 45 -170 2 -8 25 -100
52 -203 l48 -188 69 3 69 3 19 70 c11 39 46 169 78 290 48 182 59 215 65 190
4 -16 21 -82 38 -145 16 -63 47 -180 67 -260 l38 -145 71 -3 c39 -2 71 0 71 3
0 3 11 47 24 98 14 50 43 164 66 252 23 88 52 202 66 252 13 51 24 97 24 101
0 5 -25 8 -57 7 l-56 -1 -32 -119 c-17 -66 -49 -188 -71 -272 -21 -84 -42
-147 -45 -140 -9 15 -129 472 -129 490 -1 31 -19 41 -84 42 l-65 2 -15 -51
c-16 -52 -58 -213 -103 -391 -13 -55 -26 -101 -28 -103 -4 -5 -23 62 -85 298
-59 225 -58 222 -59 235 -1 7 -121 17 -121 10z"/>
<path d="M4473 2910 l-32 -5 74 -100 c41 -55 78 -105 82 -110 5 -6 27 -35 49
-66 l42 -55 -21 -30 c-12 -16 -72 -97 -134 -181 -62 -83 -113 -154 -113 -157
0 -3 29 -6 65 -6 l65 0 104 139 104 140 88 -121 c49 -66 96 -129 104 -140 13
-16 26 -19 82 -16 l67 3 -134 180 c-73 99 -130 185 -126 190 4 6 59 80 122
165 62 85 118 158 124 162 11 9 5 10 -78 10 -47 1 -61 -3 -72 -19 -8 -11 -50
-68 -93 -127 l-79 -107 -94 126 c-51 69 -98 125 -104 126 -47 4 -64 3 -92 -1z"/>
<path d="M3662 2638 c4 -250 6 -277 25 -318 44 -96 102 -133 215 -137 65 -2
83 1 125 23 26 14 63 42 80 62 l33 37 0 -52 c0 -48 2 -53 23 -54 26 -2 80 -2
87 0 3 1 6 161 6 356 l0 355 -58 0 -58 0 -1 -212 c0 -250 -2 -268 -30 -318
-45 -80 -109 -105 -236 -91 -23 2 -73 63 -83 102 -7 23 -11 142 -12 280 l-1
239 -59 0 -60 0 4 -272z"/>
</g>
</svg>
